<?xml version="1.0" encoding="utf-8"?>
<!-- Generator: Adobe Illustrator 28.0.0, SVG Export Plug-In . SVG Version: 6.00 Build 0)  -->
<svg version="1.1" id="Layer_1" xmlns="http://www.w3.org/2000/svg" xmlns:xlink="http://www.w3.org/1999/xlink" x="0px" y="0px"
	 viewBox="0 0 214.1 173.7" style="enable-background:new 0 0 214.1 173.7;" xml:space="preserve">
<style type="text/css">
	.st0{fill:none;stroke:#000000;stroke-width:5;stroke-linecap:round;}
	.st1{fill:#050505;stroke:#000000;stroke-miterlimit:10;}
</style>
<path class="st0" d="M533.9,30.3c1.2,32.4,4.3,64.7,5.6,97.2c0.8,20.3,0.8,40.7,0.8,61c0,1.7,0.8,6.2-1.2,6.3c-6,0.3-12.1,0-18.1,0
	c-14,0-27.8-1.9-41.7-2.7c-1.4-0.1-10.6,0.6-9.5-2.8c0.3-1,1-1.5,1.7-2.1c5.5-4.4,11-8.7,16.6-12.8c14.3-10.6,29.1-20,43.8-29.7
	c17.5-11.6,35.3-22.1,53.1-32.9c11.8-7.2,23.6-14.7,35.8-20.8c6.4-3.2,14.1-5.1,19.9-9.5c0.2-0.2-3.2,0-3.8,0.2
	c-6.5,2-12.3,7.5-18,11.6c-22.8,16.6-44.6,36.7-65,57.7c-4.3,4.4-8.7,8.7-12.8,13.2c-0.4,0.4-4.3,5.1-3.7,5.2
	c5.4,1,11.5-5.6,15.8-8.5c8-5.3,15.9-10.9,24.2-15.5c4.6-2.5,26.8-15.8,29.9-4.4c2.2,8.3-0.9,18.1-4.2,25.3c-5.2,11.3-13,22-20,31.5
	c-4.6,6.1-9.8,12.4-15.2,17.5c-1,1-4.9,4.2-3.7,0c3.9-12.9,14.9-22.7,22.6-31.6c13-15.2,26.7-28.6,41.3-41.2"/>
<path class="st0" d="M620.7,149.7c0.1-0.9,1.4-2.1,2-2.7c1-1,1.8-2.2,3.1-2.9c2.4-1.4,4.3-3.5,6.9-4.9c1.1-0.6,2.2-1.4,3.4-1.7
	c1.1-0.3,2.1-0.4,3.3-0.4c3.1,0,2.6,4.8,3.2,6.8c0.3,0.9,0,2.1,0,3.1c0,1,0.2,1.9,0.2,2.9c0,1.4,0.4,2.7,0.4,4.1
	c0,1.2,0.4,2.4,0.4,3.5c0,1.8,0.2-3.5,0-5.2c-0.2-1.3,0-2.8-0.3-4.1c-0.2-0.6-0.2-1.7-0.2-2.4c0-1.3-1.2-2.3-1.6-3.5
	c-0.7-1.9-2.7-3.5-4.7-3.5c-1.1,0-2.5-0.2-3.4,0.3c-2,1.1-3.5,3.7-3.5,5.9c-0.1,2.8-0.4,5.6-0.4,8.3c0,2.9,0,5.7,0,8.6
	c0,1.8,0,3.7,0,5.5c0,1.2,0.3,2.3,0.4,3.3c0,0.1,0.2,0.4,0.2,0.2c0-0.6-0.1-1-0.2-1.6c-0.3-1.3-0.6-2.5-0.8-3.7
	c-0.4-2.7-0.3-5.5-1.2-8.1c-0.2-0.6-0.2-1.9-0.5-2.3c-0.4-0.5,0-1.6-0.1-2.2c-0.2-0.7-0.1-3.1-1.1-3.4c-1.1-0.3-2.2-0.3-3.3,0.1
	c-0.5,0.2-1.1,0.5-1.6,0.7c-0.4,0.2-1.4,0.9-1.6,1.2c-1,1.7-3.2,4.9-2.1,6.8c0.2,0.4,0.1,1.2,0.1,1.7c0,0.6-0.1,1.3-0.2,2
	c0,0.5-1.1,3.4-1.4,1.8c-0.1-0.6-0.2-1.1-0.2-1.8c0-1.1,0-2.3,0-3.4c0-2.1,0.7-3.4,1.8-5.2c1.5-2.3,5.4-7.9,8.5-4.7
	c3,3.1,2.2,8.1,2.2,12.1c0,2.8,1.2,5.4,1.2,8.2c0,1.3-0.7,1.3-1.4,2.2c-0.4,0.5-0.6,0.3-0.6,1.1c0,0.8,0.3,0.8,1,0.8
	c0.8,0,0.6-0.4,1.1-0.8c0.6-0.5-0.3-0.9-0.5-1.1c-0.9-1.1-1.7-2.1-1.8-3.5c-0.4-7.1-1-15.1,1.4-21.9c0.9-2.7,3.5-4.5,6.2-5.1
	c2.1-0.5,5.3,0,6.4,2.1c1.4,2.6,0.9,6.2,0.9,9.1c0,0.9,0.3,2.7,0,3.5c-0.2,0.5-0.2,1.1-0.2,1.7c0,0.5,1.3,0.5,1.4,0
	c0.3-1.1,0.4-2.4,0.4-3.6c0-1.7-0.5-3.2-0.6-4.9c-0.1-1.9-0.8-3.7-0.8-5.6c0-1.4-0.2-2.9-0.2-4.3c0-1.1-0.6-2.1-0.6-3.1
	c0-1.2-1.8-0.9-2.6-0.9c-0.9,0-2.8,0.4-3.3,1.3c-0.6,1.1-0.9,2.3-0.9,3.5"/>
<path class="st0" d="M648.1,128.6c0.5-0.1-0.6-0.2-0.8-0.2c-0.4,0-0.7,1.5-0.6,1.9c0.3,0.9,1.5-1,1.6-1.1"/>
<path class="st0" d="M627.8,173.7c-2.2-0.3-1.6-3.8-1.6-5.4c0-2.4,0.2-4.7,0.2-7.2c0-2.5,1-6.3-0.3-8.7c-1.1-2-3.9-1.4-5.7-2.3"/>
<path class="st0" d="M636.3,135.9c-0.3,0-0.8,0.6-1,0.8c-0.3,0.3-0.5,0.6-0.8,0.9c-0.4,0.4-0.7,0.8-1.1,1.1
	c-0.2,0.2-0.4,0.5-0.7,0.6c-0.1,0-0.3,0.3-0.4,0.4c-0.4,0.7-1.1,1.5-1.7,2.1c-0.7,0.7-1.5,1.4-2.3,1.9"/>
<path class="st1" d="M609.3,156.3c9.5-8.6,18.9-17.2,28.4-25.8c0.4-0.1,1.6-0.4,3,0.1c1,0.4,1.6,1,1.9,1.3c0.3,0.2,1.2,1.1,1.5,2.6
	c0.2,1.2-0.1,2.2-0.3,2.6C632.3,143.4,620.8,149.9,609.3,156.3z"/>
<path class="st0" d="M82.5-31.6c1.2,32.4,4.3,64.7,5.6,97.2c0.8,20.3,0.8,40.7,0.8,61c0,1.7,0.8,6.2-1.2,6.3c-6,0.3-12.1,0-18.1,0
	c-14,0-27.8-1.9-41.7-2.7c-1.4-0.1-10.6,0.6-9.5-2.8c0.3-1,1-1.5,1.7-2.1c5.5-4.4,11-8.7,16.6-12.8c14.3-10.6,29.1-20,43.8-29.7
	c17.5-11.6,35.3-22.1,53.1-32.9c11.8-7.2,23.6-14.7,35.8-20.8c6.4-3.2,14.1-5.1,19.9-9.5c0.2-0.2-3.2,0-3.8,0.2
	c-6.4,2-12.3,7.5-18,11.6c-22.8,16.6-44.6,36.7-65,57.7c-4.3,4.4-8.7,8.7-12.8,13.2c-0.4,0.4-4.3,5.1-3.7,5.2
	c5.4,1,11.5-5.6,15.8-8.5c8-5.3,15.9-10.9,24.2-15.5c4.6-2.5,26.8-15.8,29.9-4.4c2.2,8.3-0.9,18.1-4.2,25.3c-5.2,11.3-13,22-20,31.5
	c-4.6,6.1-9.8,12.4-15.2,17.5c-1,1-4.9,4.2-3.7,0c3.9-12.9,14.9-22.7,22.6-31.6c13-15.2,26.7-28.6,41.3-41.2"/>
<path class="st0" d="M169.3,87.8c0.1-0.9,1.4-2.1,2-2.7c1-1,1.8-2.2,3.1-2.9c2.4-1.4,4.3-3.5,6.9-4.9c1.1-0.6,2.2-1.4,3.4-1.7
	c1.1-0.3,2.1-0.4,3.3-0.4c3.1,0,2.6,4.8,3.2,6.8c0.3,0.9,0,2.1,0,3.1c0,1,0.2,1.9,0.2,2.9c0,1.4,0.4,2.7,0.4,4.1
	c0,1.2,0.4,2.4,0.4,3.5c0,1.8,0.2-3.5,0-5.2c-0.2-1.3,0-2.8-0.3-4.1c-0.2-0.7-0.2-1.7-0.2-2.4c0-1.3-1.2-2.3-1.6-3.5
	c-0.7-1.9-2.7-3.5-4.7-3.5c-1.1,0-2.5-0.2-3.4,0.3c-2,1.1-3.5,3.7-3.5,5.9c-0.1,2.8-0.4,5.6-0.4,8.3c0,2.9,0,5.7,0,8.6
	c0,1.8,0,3.7,0,5.5c0,1.2,0.3,2.3,0.4,3.3c0,0.1,0.2,0.4,0.2,0.2c0-0.6-0.1-1-0.2-1.6c-0.3-1.3-0.6-2.5-0.8-3.7
	c-0.4-2.7-0.3-5.5-1.2-8.1c-0.2-0.6-0.2-1.9-0.5-2.3c-0.4-0.5,0-1.6-0.1-2.2c-0.2-0.7-0.1-3.1-1.1-3.4c-1.1-0.3-2.2-0.3-3.3,0.1
	c-0.5,0.2-1.1,0.5-1.6,0.7c-0.4,0.2-1.4,0.9-1.6,1.2c-1,1.7-3.2,4.9-2.1,6.8c0.2,0.4,0.1,1.2,0.1,1.7c0,0.6-0.1,1.3-0.2,2
	c0,0.5-1.1,3.4-1.4,1.8c-0.1-0.6-0.2-1.1-0.2-1.8c0-1.1,0-2.3,0-3.4c0-2.1,0.7-3.4,1.8-5.2c1.5-2.3,5.4-7.9,8.5-4.7
	c3,3.1,2.2,8.1,2.2,12.1c0,2.8,1.2,5.4,1.2,8.2c0,1.3-0.7,1.3-1.4,2.2c-0.4,0.5-0.6,0.3-0.6,1.1c0,0.8,0.3,0.8,1,0.8
	c0.8,0,0.6-0.4,1.1-0.8c0.6-0.5-0.3-0.9-0.5-1.1c-0.9-1.1-1.7-2.1-1.8-3.5c-0.4-7.1-1-15.1,1.4-21.9c0.9-2.7,3.5-4.5,6.2-5.1
	c2.1-0.5,5.3,0,6.4,2.1c1.4,2.6,0.9,6.2,0.9,9.1c0,0.9,0.3,2.7,0,3.5c-0.2,0.5-0.2,1.1-0.2,1.7c0,0.5,1.3,0.5,1.4,0
	c0.3-1.1,0.4-2.4,0.4-3.6c0-1.7-0.5-3.2-0.6-4.9c-0.1-1.9-0.8-3.7-0.8-5.6c0-1.4-0.2-2.9-0.2-4.3c0-1.1-0.6-2.1-0.6-3.1
	c0-1.2-1.8-0.9-2.6-0.9c-0.9,0-2.8,0.4-3.3,1.3c-0.6,1.1-0.9,2.3-0.9,3.5"/>
<path class="st0" d="M196.7,66.7c0.5-0.1-0.6-0.2-0.8-0.2c-0.4,0-0.7,1.5-0.6,1.9c0.3,0.9,1.5-1,1.6-1.1"/>
<path class="st0" d="M176.4,111.8c-2.2-0.3-1.6-3.8-1.6-5.4c0-2.4,0.2-4.7,0.2-7.2c0-2.5,1-6.3-0.3-8.7c-1.1-2-3.9-1.4-5.7-2.3"/>
<path class="st0" d="M184.9,74c-0.3,0-0.8,0.6-1,0.8c-0.3,0.3-0.5,0.6-0.8,0.9c-0.4,0.4-0.7,0.8-1.1,1.1c-0.2,0.2-0.4,0.5-0.7,0.6
	c-0.1,0-0.3,0.3-0.4,0.4c-0.4,0.7-1.1,1.5-1.7,2.1c-0.7,0.7-1.5,1.4-2.3,1.9"/>
<path class="st1" d="M157.9,94.4c9.5-8.6,18.9-17.2,28.4-25.8c0.4-0.1,1.6-0.4,3,0.1c1,0.4,1.6,1,1.9,1.3c0.3,0.2,1.2,1.1,1.5,2.6
	c0.2,1.2-0.1,2.2-0.3,2.6C180.9,81.6,169.4,88,157.9,94.4z"/>
</svg>
