<svg width="903" height="359" viewBox="0 0 903 359" fill="none" xmlns="http://www.w3.org/2000/svg">
<path d="M252.416 199.576V146.434H270.101V195.239C270.101 199.037 271.036 202.495 272.906 205.613C274.777 208.73 277.271 211.224 280.388 213.095C283.506 214.909 286.935 215.816 290.676 215.816C294.473 215.816 297.902 214.909 300.963 213.095C304.081 211.224 306.546 208.73 308.36 205.613C310.23 202.495 311.166 199.037 311.166 195.239V146.434H328.85L328.935 231.461H311.251L311.166 222.278C308.275 225.792 304.676 228.57 300.368 230.61C296.06 232.651 291.441 233.671 286.51 233.671C280.218 233.671 274.493 232.141 269.336 229.08C264.178 226.019 260.068 221.909 257.008 216.751C253.947 211.593 252.416 205.868 252.416 199.576Z" fill="white"/>
<path d="M390.876 164.12H373.022L372.937 231.461H355.253L355.338 164.12H341.819V146.434H355.338L355.253 119.736H372.937L373.022 146.434H390.876V164.12Z" fill="white"/>
<path d="M470.336 103.921H488.02V231.461H470.336V218.962C467.559 223.383 463.931 226.954 459.453 229.675C454.976 232.339 449.733 233.671 443.725 233.671C437.546 233.671 431.765 232.509 426.38 230.185C420.996 227.861 416.235 224.658 412.097 220.577C408.016 216.439 404.813 211.678 402.49 206.293C400.166 200.908 399.004 195.126 399.004 188.947C399.004 182.769 400.166 176.987 402.49 171.602C404.813 166.16 408.016 161.399 412.097 157.318C416.235 153.18 420.996 149.949 426.38 147.625C431.765 145.301 437.546 144.138 443.725 144.138C449.733 144.138 454.976 145.499 459.453 148.22C463.931 150.884 467.559 154.398 470.336 158.763V103.921ZM443.895 216.581C448.882 216.581 453.247 215.362 456.988 212.925C460.729 210.431 463.619 207.086 465.66 202.892C467.757 198.697 468.806 194.049 468.806 188.947C468.806 183.789 467.757 179.113 465.66 174.918C463.563 170.723 460.644 167.407 456.903 164.97C453.218 162.476 448.882 161.229 443.895 161.229C438.963 161.229 434.457 162.476 430.376 164.97C426.352 167.464 423.121 170.808 420.684 175.003C418.303 179.198 417.113 183.846 417.113 188.947C417.113 194.106 418.332 198.782 420.769 202.977C423.263 207.115 426.522 210.431 430.546 212.925C434.627 215.362 439.077 216.581 443.895 216.581Z" fill="white"/>
<path d="M544.635 233.671C536.813 233.671 529.671 231.659 523.209 227.634C516.805 223.61 511.675 218.225 507.821 211.479C504.023 204.677 502.124 197.167 502.124 188.947C502.124 182.712 503.23 176.902 505.44 171.517C507.651 166.075 510.683 161.314 514.537 157.233C518.448 153.095 522.983 149.864 528.141 147.54C533.298 145.216 538.797 144.053 544.635 144.053C552.456 144.053 559.57 146.066 565.975 150.09C572.436 154.115 577.566 159.528 581.363 166.33C585.218 173.132 587.145 180.671 587.145 188.947C587.145 195.126 586.04 200.908 583.829 206.293C581.618 211.678 578.558 216.439 574.647 220.577C570.793 224.658 566.286 227.861 561.129 230.185C556.027 232.509 550.529 233.671 544.635 233.671ZM544.635 215.986C549.339 215.986 553.562 214.739 557.303 212.245C561.044 209.75 563.991 206.463 566.145 202.382C568.355 198.244 569.461 193.766 569.461 188.947C569.461 184.016 568.327 179.481 566.06 175.343C563.849 171.205 560.873 167.918 557.133 165.48C553.392 162.986 549.226 161.739 544.635 161.739C539.987 161.739 535.764 162.986 531.967 165.48C528.226 167.974 525.25 171.29 523.039 175.428C520.886 179.566 519.809 184.073 519.809 188.947C519.809 193.992 520.942 198.555 523.209 202.637C525.477 206.718 528.481 209.977 532.222 212.415C536.019 214.795 540.157 215.986 544.635 215.986Z" fill="white"/>
<path d="M638.124 233.671C630.302 233.671 623.16 231.659 616.699 227.634C610.294 223.61 605.164 218.225 601.31 211.479C597.512 204.677 595.614 197.167 595.614 188.947C595.614 182.712 596.719 176.902 598.929 171.517C601.14 166.075 604.172 161.314 608.027 157.233C611.938 153.095 616.472 149.864 621.63 147.54C626.788 145.216 632.286 144.053 638.124 144.053C645.946 144.053 653.059 146.066 659.464 150.09C665.926 154.115 671.055 159.528 674.853 166.33C678.707 173.132 680.634 180.671 680.634 188.947C680.634 195.126 679.529 200.908 677.318 206.293C675.108 211.678 672.047 216.439 668.136 220.577C664.282 224.658 659.776 227.861 654.618 230.185C649.517 232.509 644.019 233.671 638.124 233.671ZM638.124 215.986C642.828 215.986 647.051 214.739 650.792 212.245C654.533 209.75 657.48 206.463 659.634 202.382C661.845 198.244 662.95 193.766 662.95 188.947C662.95 184.016 661.816 179.481 659.549 175.343C657.339 171.205 654.363 167.918 650.622 165.48C646.881 162.986 642.715 161.739 638.124 161.739C633.476 161.739 629.253 162.986 625.456 165.48C621.715 167.974 618.739 171.29 616.529 175.428C614.375 179.566 613.298 184.073 613.298 188.947C613.298 193.992 614.432 198.555 616.699 202.637C618.966 206.718 621.97 209.977 625.711 212.415C629.508 214.795 633.646 215.986 638.124 215.986Z" fill="white"/>
<path d="M694.37 231.461V146.434H712.055V155.447C715.002 151.933 718.63 149.155 722.937 147.114C727.245 145.074 731.893 144.053 736.881 144.053C740.055 144.053 743.2 144.479 746.318 145.329L739.261 163.184C737.051 162.334 734.84 161.909 732.63 161.909C728.889 161.909 725.459 162.844 722.342 164.715C719.225 166.529 716.731 168.995 714.86 172.112C712.99 175.23 712.055 178.688 712.055 182.485V231.461H694.37Z" fill="white"/>
<path d="M781.649 233.076C777.171 232.793 772.807 231.886 768.556 230.355C764.305 228.825 760.564 226.756 757.333 224.148C754.159 221.484 751.779 218.366 750.192 214.795L765.24 208.333C765.977 209.864 767.252 211.366 769.066 212.84C770.937 214.314 773.119 215.532 775.613 216.496C778.107 217.403 780.714 217.856 783.435 217.856C786.099 217.856 788.564 217.488 790.831 216.751C793.155 215.957 795.054 214.767 796.528 213.18C798.001 211.593 798.738 209.694 798.738 207.483C798.738 204.989 797.888 203.062 796.188 201.701C794.544 200.284 792.475 199.207 789.981 198.47C787.487 197.733 784.993 197.025 782.499 196.345C776.945 195.098 771.843 193.397 767.196 191.243C762.605 189.032 758.949 186.227 756.228 182.825C753.507 179.368 752.147 175.145 752.147 170.157C752.147 164.715 753.621 160.01 756.568 156.042C759.515 152.018 763.37 148.928 768.131 146.774C772.949 144.62 778.078 143.543 783.52 143.543C790.321 143.543 796.556 144.989 802.224 147.88C807.892 150.771 812.228 154.738 815.232 159.783L801.204 168.116C800.354 166.415 799.078 164.885 797.378 163.525C795.678 162.164 793.75 161.087 791.597 160.293C789.443 159.443 787.204 158.961 784.88 158.848C781.989 158.735 779.297 159.075 776.803 159.868C774.366 160.605 772.41 161.796 770.937 163.439C769.463 165.083 768.726 167.181 768.726 169.731C768.726 172.226 769.605 174.096 771.362 175.343C773.119 176.534 775.329 177.497 777.993 178.234C780.714 178.971 783.491 179.793 786.325 180.7C791.37 182.287 796.103 184.243 800.524 186.567C804.945 188.834 808.516 191.64 811.236 194.984C813.957 198.329 815.261 202.41 815.147 207.228C815.147 212.556 813.532 217.233 810.301 221.257C807.127 225.282 802.989 228.343 797.888 230.44C792.787 232.538 787.374 233.416 781.649 233.076Z" fill="white"/>
<path d="M884.125 146.434H903L856.409 273.974H837.619L853.008 231.461L822.486 146.434H841.785L861.85 207.228L884.125 146.434Z" fill="white"/>
<path d="M225.668 127.294L310.828 67.7492L321.189 85.9894L231.235 136.084L225.668 127.294Z" fill="#FBBC05"/>
<path d="M122.192 220.505L50.8071 296.188L36.984 280.441L114.968 213.034L122.192 220.505Z" fill="#FBBC05"/>
<path d="M103.7 175.921L0 177.32L1.56123 156.371L103.976 165.501L103.7 175.921Z" fill="#FBBC05"/>
<path d="M169.928 104.261L166.141 0L186.996 1.08615L180.289 104.298L169.928 104.261Z" fill="#FBBC05"/>
<path d="M123.316 129.649L26.6971 49.1212L45.1556 30.3459L132.036 119.916L123.316 129.649Z" fill="#FBBC05"/>
<path d="M143.156 112.995L120.223 74.6819L134.46 67.8683L150.131 109.419L143.156 112.995Z" fill="#FBBC05"/>
<path d="M202.747 241.11L245.133 353.16L224.47 359L192.668 244.558L202.747 241.11Z" fill="#FBBC05"/>
<path d="M106.236 199.787L61.4654 216.435L57.4283 201.102L104.011 192.236L106.236 199.787Z" fill="#FBBC05"/>
<path d="M227.493 221.177L288.326 282.317L275.381 293.228L221.344 226.903L227.493 221.177Z" fill="#FBBC05"/>
<path d="M111.455 150.013L43.9134 124.338L50.7635 110.042L114.537 142.774L111.455 150.013Z" fill="#FBBC05"/>
<path d="M203.878 109.676L233.976 51.4254L247.276 59.9557L210.642 113.64L203.878 109.676Z" fill="#FBBC05"/>
<path d="M170.82 246.025L167.602 332.732L151.946 330.725L163.012 245.445L170.82 246.025Z" fill="#FBBC05"/>
<path d="M140.246 240.493L112.334 299.835L98.7265 291.811L133.339 236.786L140.246 240.493Z" fill="#FBBC05"/>
<path fill-rule="evenodd" clip-rule="evenodd" d="M173.545 239.728C209.309 239.728 238.301 211.134 238.301 175.862C238.301 140.589 209.309 109.441 173.545 109.441C137.782 109.441 108.79 140.589 108.79 175.862C108.79 211.134 137.782 239.728 173.545 239.728ZM173.545 218.882C197.865 218.882 217.579 199.049 217.579 174.584C217.579 150.119 197.865 130.287 173.545 130.287C149.226 130.287 129.511 150.119 129.511 174.584C129.511 199.049 149.226 218.882 173.545 218.882Z" fill="white"/>
</svg>
