<svg width="60" height="60" viewBox="0 0 60 60" fill="none" xmlns="http://www.w3.org/2000/svg">
<g clip-path="url(#clip0_18_148)">
<path fill-rule="evenodd" clip-rule="evenodd" d="M30 60C46.5685 60 60 46.5685 60 30C60 13.4315 46.5685 0 30 0C13.4315 0 0 13.4315 0 30C0 46.5685 13.4315 60 30 60Z" fill="white"/>
<path fill-rule="evenodd" clip-rule="evenodd" d="M35.4229 19.862V22.1697H44.6537V19.862H35.4229ZM12.1152 18.6609L22.7674 18.7789C22.7674 18.7789 28.6169 18.4703 29.4232 23.1147C30.2294 27.759 26.4807 28.8563 26.4807 28.8563C26.4807 28.8563 31.1103 29.9078 30.4657 35.3326C29.821 40.7574 23.4992 40.8134 23.4992 40.8134H12.1152V18.6609ZM16.9614 27.4775L21.3694 27.505C21.6515 27.505 22.3932 27.4804 23.0033 27.3363C23.2645 27.2747 23.7726 27.0993 24.1235 26.7829C24.2692 26.6516 24.5376 26.2815 24.6925 25.8429C24.843 25.4166 24.8821 24.9225 24.8821 24.7329C24.8821 24.3858 24.8189 24.0645 24.6925 23.769C24.566 23.4735 24.3764 23.2179 24.1235 23.0022C23.8706 22.7864 23.5491 22.6175 23.1588 22.4956C22.7685 22.3736 22.304 22.3127 21.7652 22.3127L16.9614 22.2852V27.4775ZM16.9614 36.7932L21.7774 36.8236C22.0856 36.8236 22.896 36.7964 23.5625 36.6372C23.8479 36.5691 24.4031 36.3752 24.7864 36.0256C24.9456 35.8804 25.2388 35.4713 25.408 34.9866C25.5725 34.5154 25.6152 33.9693 25.6152 33.7598C25.6152 33.3761 25.5462 33.021 25.408 32.6944C25.2699 32.3678 25.0627 32.0853 24.7864 31.8468C24.5101 31.6084 24.1588 31.4217 23.7324 31.2869C23.3059 31.1522 22.7985 31.0848 22.2099 31.0848L16.9614 31.0544V36.7932ZM36.4408 33.8426C36.4477 33.9716 36.4408 37.1533 39.0476 37.884C42.074 38.7324 43.4229 36.2185 43.5276 35.9272H47.4916C47.3891 36.4047 45.7777 42.9047 37.0104 40.7862C31.6286 39.4858 31.9054 33.1136 31.9054 32.5679C31.9054 32.0653 31.927 29.392 34.0957 26.9268C36.2643 24.4616 39.3519 24.4616 39.9771 24.4616C40.6024 24.4616 43.8179 24.4616 45.7777 26.6371C48.3133 29.4519 47.8104 33.9622 47.8104 33.9622L36.4408 33.8426ZM43.3845 31.0544C43.3537 30.5557 43.2539 30.0961 43.0848 29.6756C42.9158 29.2551 42.6827 28.8909 42.3856 28.5829C42.0885 28.2749 41.7325 28.0328 41.3176 27.8568C40.9027 27.6808 40.4391 27.5928 39.9268 27.5928C39.4658 27.5928 39.0381 27.6857 38.6437 27.8715C38.2493 28.0573 37.9035 28.3091 37.6064 28.6269C37.3093 28.9447 37.0711 29.3114 36.8918 29.7269C36.7125 30.1425 36.6075 30.585 36.5768 31.0544H43.3845Z" fill="black"/>
</g>
<defs>
<clipPath id="clip0_18_148">
<rect width="60" height="60" fill="white"/>
</clipPath>
</defs>
</svg>
