<svg width="212" height="55" viewBox="0 0 212 55" fill="none" xmlns="http://www.w3.org/2000/svg">
<g clip-path="url(#clip0_6_2)">
<rect width="212" height="55" fill="white"/>
<path d="M0.703125 28.2188L0.585938 25.957C1.98438 25.957 3.02734 25.6172 3.71484 24.9375C4.41016 24.2656 4.75781 23.2539 4.75781 21.9023V6.42188H7.33594V21.832C7.33594 23.3242 7.10547 24.5391 6.64453 25.4766C6.19141 26.4219 5.47656 27.1133 4.5 27.5508C3.53125 27.9961 2.26562 28.2188 0.703125 28.2188ZM21.1641 22.6055C19.7109 23.6914 18.1133 24.2344 16.3711 24.2344C15.1289 24.2344 14.0156 23.9609 13.0312 23.4141C12.0469 22.8672 11.2695 22.1211 10.6992 21.1758C10.1289 20.2305 9.84375 19.1641 9.84375 17.9766C9.84375 16.8438 10.1055 15.832 10.6289 14.9414C11.1523 14.043 11.8672 13.3359 12.7734 12.8203C13.6797 12.3047 14.707 12.0469 15.8555 12.0469C17.043 12.0469 18.0859 12.3281 18.9844 12.8906C19.8906 13.4531 20.5938 14.2383 21.0938 15.2461C21.6016 16.2461 21.8555 17.4062 21.8555 18.7266V19.1016H12.4453C12.5859 19.7109 12.8516 20.2461 13.2422 20.707C13.6328 21.1602 14.1172 21.5156 14.6953 21.7734C15.2734 22.0234 15.9258 22.1484 16.6523 22.1484C17.9492 22.1484 19.1406 21.7266 20.2266 20.8828L21.1641 22.6055ZM12.3398 17.4375H19.6172C19.5391 16.7812 19.3359 16.2109 19.0078 15.7266C18.6797 15.2344 18.2539 14.8516 17.7305 14.5781C17.2148 14.2969 16.6328 14.1562 15.9844 14.1562C15.3281 14.1562 14.7383 14.2969 14.2148 14.5781C13.6914 14.8516 13.2656 15.2344 12.9375 15.7266C12.6172 16.2188 12.418 16.7891 12.3398 17.4375ZM35.5898 24H33.1875V17.6367C33.1875 16.5977 32.9023 15.7695 32.332 15.1523C31.7695 14.5352 31.0117 14.2266 30.0586 14.2266C29.0742 14.2266 28.2812 14.5547 27.6797 15.2109C27.0781 15.8672 26.7773 16.7383 26.7773 17.8242V24H24.375V12.2812H26.4023L26.4844 14.168C26.9141 13.4805 27.4766 12.957 28.1719 12.5977C28.8672 12.2305 29.6836 12.0469 30.6211 12.0469C32.1602 12.0469 33.3711 12.5117 34.2539 13.4414C35.1445 14.3711 35.5898 15.6523 35.5898 17.2852V24ZM49.957 24H47.5547V17.6367C47.5547 16.5977 47.2695 15.7695 46.6992 15.1523C46.1367 14.5352 45.3789 14.2266 44.4258 14.2266C43.4414 14.2266 42.6484 14.5547 42.0469 15.2109C41.4453 15.8672 41.1445 16.7383 41.1445 17.8242V24H38.7422V12.2812H40.7695L40.8516 14.168C41.2812 13.4805 41.8438 12.957 42.5391 12.5977C43.2344 12.2305 44.0508 12.0469 44.9883 12.0469C46.5273 12.0469 47.7383 12.5117 48.6211 13.4414C49.5117 14.3711 49.957 15.6523 49.957 17.2852V24ZM54.3516 8.88281C53.9844 8.88281 53.6758 8.75391 53.4258 8.49609C53.1758 8.23828 53.0508 7.92578 53.0508 7.55859C53.0508 7.19141 53.1758 6.88281 53.4258 6.63281C53.6758 6.375 53.9844 6.24609 54.3516 6.24609C54.7266 6.24609 55.0391 6.375 55.2891 6.63281C55.5469 6.88281 55.6758 7.19141 55.6758 7.55859C55.6758 7.92578 55.5469 8.23828 55.2891 8.49609C55.0391 8.75391 54.7266 8.88281 54.3516 8.88281ZM55.5469 24H53.1445V12.2812H55.5469V24ZM62.2734 24H59.8711V14.4258H57.8203V12.2812H59.8711V9.99609C59.8711 9.23047 60.0391 8.55469 60.375 7.96875C60.7188 7.375 61.1875 6.91016 61.7812 6.57422C62.3828 6.23828 63.0742 6.07031 63.8555 6.07031C64.3398 6.07031 64.8281 6.13672 65.3203 6.26953C65.8125 6.40234 66.2969 6.60938 66.7734 6.89062L65.8594 8.77734C65.6016 8.58984 65.332 8.45312 65.0508 8.36719C64.7773 8.27344 64.5039 8.22656 64.2305 8.22656C63.6602 8.22656 63.1914 8.42969 62.8242 8.83594C62.457 9.24219 62.2734 9.78516 62.2734 10.4648V12.2812H65.8594V14.4258H62.2734V24ZM78.75 22.6055C77.2969 23.6914 75.6992 24.2344 73.957 24.2344C72.7148 24.2344 71.6016 23.9609 70.6172 23.4141C69.6328 22.8672 68.8555 22.1211 68.2852 21.1758C67.7148 20.2305 67.4297 19.1641 67.4297 17.9766C67.4297 16.8438 67.6914 15.832 68.2148 14.9414C68.7383 14.043 69.4531 13.3359 70.3594 12.8203C71.2656 12.3047 72.293 12.0469 73.4414 12.0469C74.6289 12.0469 75.6719 12.3281 76.5703 12.8906C77.4766 13.4531 78.1797 14.2383 78.6797 15.2461C79.1875 16.2461 79.4414 17.4062 79.4414 18.7266V19.1016H70.0312C70.1719 19.7109 70.4375 20.2461 70.8281 20.707C71.2188 21.1602 71.7031 21.5156 72.2812 21.7734C72.8594 22.0234 73.5117 22.1484 74.2383 22.1484C75.5352 22.1484 76.7266 21.7266 77.8125 20.8828L78.75 22.6055ZM69.9258 17.4375H77.2031C77.125 16.7812 76.9219 16.2109 76.5938 15.7266C76.2656 15.2344 75.8398 14.8516 75.3164 14.5781C74.8008 14.2969 74.2188 14.1562 73.5703 14.1562C72.9141 14.1562 72.3242 14.2969 71.8008 14.5781C71.2773 14.8516 70.8516 15.2344 70.5234 15.7266C70.2031 16.2188 70.0039 16.7891 69.9258 17.4375ZM84.3633 24H81.9609V12.2812H84.0586L84.1523 14.5078C84.5586 13.7344 85.1172 13.1328 85.8281 12.7031C86.5469 12.2656 87.3711 12.0469 88.3008 12.0469C88.5273 12.0469 88.7539 12.0625 88.9805 12.0938C89.2148 12.1172 89.4492 12.1562 89.6836 12.2109L89.3789 14.3789C88.9258 14.2617 88.4805 14.2031 88.043 14.2031C87.3164 14.2031 86.6758 14.3789 86.1211 14.7305C85.5664 15.0742 85.1328 15.5508 84.8203 16.1602C84.5156 16.7695 84.3633 17.4727 84.3633 18.2695V24ZM96.4219 22.2305L97.6523 20.25C98.1758 20.6719 98.6875 21.0234 99.1875 21.3047C99.6953 21.5781 100.207 21.7812 100.723 21.9141C101.238 22.0391 101.766 22.1016 102.305 22.1016C103.039 22.1016 103.68 21.9844 104.227 21.75C104.773 21.5156 105.199 21.1875 105.504 20.7656C105.809 20.3438 105.961 19.8594 105.961 19.3125C105.961 18.6953 105.781 18.1836 105.422 17.7773C105.07 17.3711 104.609 17.0234 104.039 16.7344C103.469 16.4375 102.859 16.1562 102.211 15.8906C101.641 15.6562 101.07 15.4023 100.5 15.1289C99.9375 14.8477 99.4219 14.5234 98.9531 14.1562C98.4922 13.7891 98.1211 13.3438 97.8398 12.8203C97.5664 12.2891 97.4297 11.6484 97.4297 10.8984C97.4297 9.9375 97.6719 9.09375 98.1562 8.36719C98.6406 7.64062 99.3086 7.07812 100.16 6.67969C101.02 6.28125 102.008 6.08203 103.125 6.08203C103.883 6.08203 104.656 6.18359 105.445 6.38672C106.242 6.58203 107.02 6.875 107.777 7.26562L106.734 9.36328C106.188 9.04297 105.605 8.79297 104.988 8.61328C104.379 8.43359 103.789 8.34375 103.219 8.34375C102.594 8.34375 102.043 8.44531 101.566 8.64844C101.098 8.85156 100.73 9.13672 100.465 9.50391C100.199 9.87109 100.066 10.3008 100.066 10.793C100.066 11.3477 100.234 11.8164 100.57 12.1992C100.906 12.582 101.344 12.918 101.883 13.207C102.43 13.4883 103.008 13.7617 103.617 14.0273C104.211 14.293 104.801 14.5742 105.387 14.8711C105.98 15.1602 106.516 15.5039 106.992 15.9023C107.477 16.3008 107.863 16.7773 108.152 17.332C108.449 17.8789 108.598 18.5391 108.598 19.3125C108.598 20.3203 108.34 21.2031 107.824 21.9609C107.309 22.7109 106.586 23.2969 105.656 23.7188C104.734 24.1406 103.652 24.3516 102.41 24.3516C101.309 24.3516 100.254 24.1758 99.2461 23.8242C98.2461 23.4648 97.3047 22.9336 96.4219 22.2305ZM121.348 22.2539C120.777 22.8867 120.094 23.375 119.297 23.7188C118.5 24.0625 117.637 24.2344 116.707 24.2344C115.535 24.2344 114.48 23.9688 113.543 23.4375C112.613 22.9062 111.879 22.1797 111.34 21.2578C110.801 20.3359 110.531 19.2969 110.531 18.1406C110.531 16.9766 110.801 15.9375 111.34 15.0234C111.879 14.1016 112.613 13.375 113.543 12.8438C114.48 12.3125 115.535 12.0469 116.707 12.0469C117.629 12.0469 118.488 12.2188 119.285 12.5625C120.082 12.8984 120.766 13.3828 121.336 14.0156L119.918 15.5039C119.535 15.0977 119.074 14.7852 118.535 14.5664C118.004 14.3398 117.438 14.2266 116.836 14.2266C116.094 14.2266 115.434 14.3945 114.855 14.7305C114.277 15.0664 113.824 15.5273 113.496 16.1133C113.168 16.6914 113.004 17.3633 113.004 18.1289C113.004 18.8867 113.168 19.5625 113.496 20.1562C113.824 20.75 114.277 21.2148 114.855 21.5508C115.434 21.8867 116.094 22.0547 116.836 22.0547C117.438 22.0547 118.008 21.9414 118.547 21.7148C119.086 21.4883 119.543 21.1758 119.918 20.7773L121.348 22.2539ZM123.844 24V6.42188H126.246V13.9102C127.113 12.668 128.43 12.0469 130.195 12.0469C131.719 12.0469 132.91 12.5078 133.77 13.4297C134.629 14.3516 135.059 15.6367 135.059 17.2852V24H132.656V17.8711C132.656 16.707 132.375 15.8047 131.812 15.1641C131.258 14.5234 130.48 14.2031 129.48 14.2031C128.473 14.2031 127.68 14.5312 127.102 15.1875C126.531 15.8359 126.246 16.7305 126.246 17.8711V24H123.844ZM140.613 24H138.211V12.2812H140.309L140.402 14.5078C140.809 13.7344 141.367 13.1328 142.078 12.7031C142.797 12.2656 143.621 12.0469 144.551 12.0469C144.777 12.0469 145.004 12.0625 145.23 12.0938C145.465 12.1172 145.699 12.1562 145.934 12.2109L145.629 14.3789C145.176 14.2617 144.73 14.2031 144.293 14.2031C143.566 14.2031 142.926 14.3789 142.371 14.7305C141.816 15.0742 141.383 15.5508 141.07 16.1602C140.766 16.7695 140.613 17.4727 140.613 18.2695V24ZM153.094 24.2344C151.922 24.2344 150.867 23.9688 149.93 23.4375C148.992 22.9062 148.254 22.1836 147.715 21.2695C147.176 20.3477 146.906 19.3047 146.906 18.1406C146.906 16.9844 147.176 15.9492 147.715 15.0352C148.254 14.1133 148.992 13.3867 149.93 12.8555C150.867 12.3164 151.922 12.0469 153.094 12.0469C154.273 12.0469 155.328 12.3164 156.258 12.8555C157.188 13.3867 157.918 14.1133 158.449 15.0352C158.988 15.9492 159.258 16.9844 159.258 18.1406C159.258 19.3047 158.988 20.3477 158.449 21.2695C157.918 22.1836 157.188 22.9062 156.258 23.4375C155.328 23.9688 154.273 24.2344 153.094 24.2344ZM153.082 22.0781C153.793 22.0781 154.426 21.9062 154.98 21.5625C155.543 21.2109 155.984 20.7422 156.305 20.1562C156.633 19.5625 156.797 18.8867 156.797 18.1289C156.797 17.3867 156.633 16.7227 156.305 16.1367C155.984 15.543 155.543 15.0742 154.98 14.7305C154.426 14.3789 153.793 14.2031 153.082 14.2031C152.379 14.2031 151.746 14.3789 151.184 14.7305C150.621 15.0742 150.176 15.543 149.848 16.1367C149.527 16.7227 149.367 17.3867 149.367 18.1289C149.367 18.8867 149.527 19.5625 149.848 20.1562C150.176 20.7422 150.621 21.2109 151.184 21.5625C151.746 21.9062 152.379 22.0781 153.082 22.0781ZM172.219 22.6055C170.766 23.6914 169.168 24.2344 167.426 24.2344C166.184 24.2344 165.07 23.9609 164.086 23.4141C163.102 22.8672 162.324 22.1211 161.754 21.1758C161.184 20.2305 160.898 19.1641 160.898 17.9766C160.898 16.8438 161.16 15.832 161.684 14.9414C162.207 14.043 162.922 13.3359 163.828 12.8203C164.734 12.3047 165.762 12.0469 166.91 12.0469C168.098 12.0469 169.141 12.3281 170.039 12.8906C170.945 13.4531 171.648 14.2383 172.148 15.2461C172.656 16.2461 172.91 17.4062 172.91 18.7266V19.1016H163.5C163.641 19.7109 163.906 20.2461 164.297 20.707C164.688 21.1602 165.172 21.5156 165.75 21.7734C166.328 22.0234 166.98 22.1484 167.707 22.1484C169.004 22.1484 170.195 21.7266 171.281 20.8828L172.219 22.6055ZM163.395 17.4375H170.672C170.594 16.7812 170.391 16.2109 170.062 15.7266C169.734 15.2344 169.309 14.8516 168.785 14.5781C168.27 14.2969 167.688 14.1562 167.039 14.1562C166.383 14.1562 165.793 14.2969 165.27 14.5781C164.746 14.8516 164.32 15.2344 163.992 15.7266C163.672 16.2188 163.473 16.7891 163.395 17.4375ZM187.078 24H184.957L184.828 22.3242C184.297 22.918 183.656 23.3867 182.906 23.7305C182.164 24.0664 181.348 24.2344 180.457 24.2344C179.332 24.2344 178.324 23.9688 177.434 23.4375C176.543 22.9062 175.84 22.1797 175.324 21.2578C174.816 20.3359 174.562 19.2969 174.562 18.1406C174.562 16.9766 174.816 15.9375 175.324 15.0234C175.84 14.1016 176.543 13.375 177.434 12.8438C178.324 12.3125 179.332 12.0469 180.457 12.0469C181.301 12.0469 182.082 12.1992 182.801 12.5039C183.527 12.8086 184.152 13.2344 184.676 13.7812V6.42188H187.078V24ZM180.855 22.0781C181.566 22.0781 182.207 21.9141 182.777 21.5859C183.355 21.2578 183.816 20.8125 184.16 20.25C184.504 19.6875 184.676 19.0469 184.676 18.3281V17.9297C184.676 17.2109 184.504 16.5703 184.16 16.0078C183.816 15.4453 183.355 15.0039 182.777 14.6836C182.207 14.3633 181.566 14.2031 180.855 14.2031C180.129 14.2031 179.477 14.375 178.898 14.7188C178.32 15.0625 177.863 15.5312 177.527 16.125C177.191 16.7109 177.023 17.3789 177.023 18.1289C177.023 18.8789 177.191 19.5508 177.527 20.1445C177.863 20.7383 178.32 21.2109 178.898 21.5625C179.477 21.9062 180.129 22.0781 180.855 22.0781ZM200.906 22.6055C199.453 23.6914 197.855 24.2344 196.113 24.2344C194.871 24.2344 193.758 23.9609 192.773 23.4141C191.789 22.8672 191.012 22.1211 190.441 21.1758C189.871 20.2305 189.586 19.1641 189.586 17.9766C189.586 16.8438 189.848 15.832 190.371 14.9414C190.895 14.043 191.609 13.3359 192.516 12.8203C193.422 12.3047 194.449 12.0469 195.598 12.0469C196.785 12.0469 197.828 12.3281 198.727 12.8906C199.633 13.4531 200.336 14.2383 200.836 15.2461C201.344 16.2461 201.598 17.4062 201.598 18.7266V19.1016H192.188C192.328 19.7109 192.594 20.2461 192.984 20.707C193.375 21.1602 193.859 21.5156 194.438 21.7734C195.016 22.0234 195.668 22.1484 196.395 22.1484C197.691 22.1484 198.883 21.7266 199.969 20.8828L200.906 22.6055ZM192.082 17.4375H199.359C199.281 16.7812 199.078 16.2109 198.75 15.7266C198.422 15.2344 197.996 14.8516 197.473 14.5781C196.957 14.2969 196.375 14.1562 195.727 14.1562C195.07 14.1562 194.48 14.2969 193.957 14.5781C193.434 14.8516 193.008 15.2344 192.68 15.7266C192.359 16.2188 192.16 16.7891 192.082 17.4375ZM206.52 24H204.117V12.2812H206.215L206.309 14.5078C206.715 13.7344 207.273 13.1328 207.984 12.7031C208.703 12.2656 209.527 12.0469 210.457 12.0469C210.684 12.0469 210.91 12.0625 211.137 12.0938C211.371 12.1172 211.605 12.1562 211.84 12.2109L211.535 14.3789C211.082 14.2617 210.637 14.2031 210.199 14.2031C209.473 14.2031 208.832 14.3789 208.277 14.7305C207.723 15.0742 207.289 15.5508 206.977 16.1602C206.672 16.7695 206.52 17.4727 206.52 18.2695V24Z" fill="black"/>
<path d="M16.7402 35.3516V43.457C16.7402 44.8763 16.4961 46.097 16.0078 47.1191C15.526 48.1413 14.8327 48.9258 13.9277 49.4727C13.0228 50.0195 11.9388 50.293 10.6758 50.293C9.41276 50.293 8.32878 50.0195 7.42383 49.4727C6.51888 48.9258 5.82227 48.1413 5.33398 47.1191C4.85221 46.097 4.61133 44.8763 4.61133 43.457V35.3516H5.90039V43.3984C5.90039 44.5964 6.09245 45.625 6.47656 46.4844C6.86068 47.3372 7.40755 47.9948 8.11719 48.457C8.83333 48.9128 9.6862 49.1406 10.6758 49.1406C11.6654 49.1406 12.515 48.9128 13.2246 48.457C13.9408 47.9948 14.4909 47.3372 14.875 46.4844C15.2591 45.625 15.4512 44.5964 15.4512 43.3984V35.3516H16.7402ZM32.1016 50H30.4902L25.5195 43.3496L20.5293 50H18.9863L24.7285 42.3926L19.4258 35.3516H21.0371L25.5977 41.4453L30.1387 35.3516H31.6914L26.3789 42.4023L32.1016 50ZM34.1621 50.1953H32.9902L39.2207 35.1562H40.3828L34.1621 50.1953ZM54.377 35.3516V43.457C54.377 44.8763 54.1328 46.097 53.6445 47.1191C53.1628 48.1413 52.4694 48.9258 51.5645 49.4727C50.6595 50.0195 49.5755 50.293 48.3125 50.293C47.0495 50.293 45.9655 50.0195 45.0605 49.4727C44.1556 48.9258 43.459 48.1413 42.9707 47.1191C42.4889 46.097 42.248 44.8763 42.248 43.457V35.3516H43.5371V43.3984C43.5371 44.5964 43.7292 45.625 44.1133 46.4844C44.4974 47.3372 45.0443 47.9948 45.7539 48.457C46.4701 48.9128 47.3229 49.1406 48.3125 49.1406C49.3021 49.1406 50.1517 48.9128 50.8613 48.457C51.5775 47.9948 52.1276 47.3372 52.5117 46.4844C52.8958 45.625 53.0879 44.5964 53.0879 43.3984V35.3516H54.377ZM58.8887 35.3516V50H57.5996V35.3516H58.8887ZM67.0918 50V35.3516H71.1152C72.9251 35.3516 74.4746 35.6445 75.7637 36.2305C77.0527 36.8099 78.0423 37.6465 78.7324 38.7402C79.4225 39.834 79.7676 41.1458 79.7676 42.6758C79.7676 44.1992 79.4225 45.5111 78.7324 46.6113C78.0423 47.7051 77.0527 48.5449 75.7637 49.1309C74.4746 49.7103 72.9251 50 71.1152 50H67.0918ZM68.3809 48.8477H71.1836C72.7135 48.8477 74.0189 48.6035 75.0996 48.1152C76.1868 47.627 77.0169 46.9238 77.5898 46.0059C78.1628 45.0814 78.4492 43.9714 78.4492 42.6758C78.4492 41.3737 78.1628 40.2637 77.5898 39.3457C77.0169 38.4277 76.1868 37.7246 75.0996 37.2363C74.0189 36.748 72.7135 36.5039 71.1836 36.5039H68.3809V48.8477ZM90.7441 48.7793C89.5462 49.7233 88.2181 50.1953 86.7598 50.1953C85.7507 50.1953 84.8457 49.9707 84.0449 49.5215C83.2507 49.0658 82.6257 48.4473 82.1699 47.666C81.7142 46.8848 81.4863 45.9993 81.4863 45.0098C81.4863 44.0527 81.6979 43.1999 82.1211 42.4512C82.5508 41.7025 83.1367 41.1133 83.8789 40.6836C84.6211 40.2539 85.4642 40.0391 86.4082 40.0391C87.3652 40.0391 88.2083 40.2669 88.9375 40.7227C89.6667 41.1719 90.2363 41.7969 90.6465 42.5977C91.0566 43.3919 91.2617 44.3132 91.2617 45.3613V45.6641H82.7852C82.8633 46.3477 83.0879 46.9466 83.459 47.4609C83.8366 47.9753 84.3184 48.3757 84.9043 48.6621C85.4902 48.9486 86.1478 49.0918 86.877 49.0918C88.0749 49.0918 89.1751 48.6947 90.1777 47.9004L90.7441 48.7793ZM82.7461 44.6289H90.1387C90.0801 43.9323 89.888 43.3236 89.5625 42.8027C89.237 42.2819 88.8073 41.875 88.2734 41.582C87.7461 41.2891 87.1439 41.1426 86.4668 41.1426C85.7832 41.1426 85.168 41.2891 84.6211 41.582C84.0807 41.875 83.6445 42.2852 83.3125 42.8125C82.987 43.3333 82.7982 43.9388 82.7461 44.6289ZM93.0293 49.1504L93.3809 48.0371C93.6217 48.2585 93.8887 48.4473 94.1816 48.6035C94.4811 48.7598 94.7904 48.8802 95.1094 48.9648C95.4349 49.0495 95.7637 49.0918 96.0957 49.0918C96.7598 49.0918 97.3001 48.929 97.7168 48.6035C98.1335 48.278 98.3418 47.8548 98.3418 47.334C98.3418 46.9629 98.2376 46.6602 98.0293 46.4258C97.821 46.1849 97.5475 45.9798 97.209 45.8105C96.8704 45.6413 96.5124 45.4818 96.1348 45.332C95.6986 45.1628 95.2721 44.974 94.8555 44.7656C94.4388 44.5508 94.0938 44.2741 93.8203 43.9355C93.5534 43.597 93.4199 43.151 93.4199 42.5977C93.4199 42.0768 93.5469 41.6276 93.8008 41.25C94.0612 40.8659 94.4225 40.5697 94.8848 40.3613C95.3535 40.1465 95.8939 40.0391 96.5059 40.0391C97.3848 40.0391 98.2507 40.2539 99.1035 40.6836L98.7324 41.7676C98.5306 41.6439 98.3027 41.5365 98.0488 41.4453C97.7949 41.3477 97.5345 41.2728 97.2676 41.2207C97.0007 41.1686 96.7467 41.1426 96.5059 41.1426C95.9525 41.1426 95.5065 41.276 95.168 41.543C94.8294 41.8034 94.6602 42.1484 94.6602 42.5781C94.6602 42.8581 94.735 43.1022 94.8848 43.3105C95.041 43.5124 95.2754 43.7012 95.5879 43.877C95.9004 44.0527 96.291 44.2383 96.7598 44.4336C97.209 44.6159 97.6484 44.8242 98.0781 45.0586C98.5078 45.2865 98.8626 45.5794 99.1426 45.9375C99.429 46.2956 99.5723 46.7611 99.5723 47.334C99.5723 47.8939 99.4258 48.3919 99.1328 48.8281C98.8464 49.2578 98.446 49.5931 97.9316 49.834C97.4238 50.0749 96.8314 50.1953 96.1543 50.1953C95.028 50.1953 93.9863 49.847 93.0293 49.1504ZM102.795 36.8066C102.567 36.8066 102.375 36.7285 102.219 36.5723C102.069 36.4095 101.994 36.2142 101.994 35.9863C101.994 35.765 102.069 35.5762 102.219 35.4199C102.375 35.2637 102.567 35.1855 102.795 35.1855C103.029 35.1855 103.225 35.2637 103.381 35.4199C103.544 35.5762 103.625 35.765 103.625 35.9863C103.625 36.2142 103.544 36.4095 103.381 36.5723C103.225 36.7285 103.029 36.8066 102.795 36.8066ZM103.4 50H102.199V40.2344H103.4V50ZM110.812 49.9316C109.888 49.9316 109.058 49.7168 108.322 49.2871C107.587 48.8509 107.004 48.2617 106.574 47.5195C106.151 46.7708 105.939 45.9277 105.939 44.9902C105.939 44.0462 106.151 43.2031 106.574 42.4609C107.004 41.7122 107.587 41.123 108.322 40.6934C109.058 40.2572 109.891 40.0391 110.822 40.0391C111.669 40.0391 112.43 40.2246 113.107 40.5957C113.791 40.9668 114.338 41.4648 114.748 42.0898L114.807 40.2344H115.881V49.7559C115.881 50.8561 115.673 51.8034 115.256 52.5977C114.839 53.3919 114.243 54.0039 113.469 54.4336C112.694 54.8633 111.77 55.0781 110.695 55.0781C109.165 55.0781 107.854 54.5605 106.76 53.5254L107.326 52.5684C108.225 53.5189 109.341 53.9941 110.676 53.9941C111.503 53.9941 112.212 53.8184 112.805 53.4668C113.404 53.1217 113.866 52.6335 114.191 52.002C114.517 51.3704 114.68 50.6185 114.68 49.7461V47.959C114.263 48.5645 113.719 49.0462 113.049 49.4043C112.378 49.7559 111.633 49.9316 110.812 49.9316ZM110.91 48.8672C111.6 48.8672 112.225 48.7109 112.785 48.3984C113.345 48.0859 113.794 47.6595 114.133 47.1191C114.478 46.5723 114.66 45.9538 114.68 45.2637V44.7168C114.66 44.0202 114.478 43.4017 114.133 42.8613C113.794 42.3145 113.345 41.8848 112.785 41.5723C112.232 41.2598 111.61 41.1035 110.92 41.1035C110.204 41.1035 109.559 41.276 108.986 41.6211C108.42 41.9596 107.971 42.4219 107.639 43.0078C107.313 43.5872 107.15 44.248 107.15 44.9902C107.15 45.7259 107.313 46.3867 107.639 46.9727C107.971 47.5586 108.42 48.0208 108.986 48.3594C109.553 48.6979 110.194 48.8672 110.91 48.8672ZM127.902 50H126.701V44.5312C126.701 43.4896 126.415 42.666 125.842 42.0605C125.269 41.4486 124.497 41.1426 123.527 41.1426C122.525 41.1426 121.721 41.4648 121.115 42.1094C120.51 42.7474 120.207 43.6003 120.207 44.668V50H119.006V40.2344H120.07L120.109 42.0703C120.448 41.4128 120.923 40.9115 121.535 40.5664C122.147 40.2148 122.876 40.0391 123.723 40.0391C125.025 40.0391 126.047 40.4297 126.789 41.2109C127.531 41.9922 127.902 43.0729 127.902 44.4531V50ZM139.416 48.7793C138.218 49.7233 136.89 50.1953 135.432 50.1953C134.423 50.1953 133.518 49.9707 132.717 49.5215C131.923 49.0658 131.298 48.4473 130.842 47.666C130.386 46.8848 130.158 45.9993 130.158 45.0098C130.158 44.0527 130.37 43.1999 130.793 42.4512C131.223 41.7025 131.809 41.1133 132.551 40.6836C133.293 40.2539 134.136 40.0391 135.08 40.0391C136.037 40.0391 136.88 40.2669 137.609 40.7227C138.339 41.1719 138.908 41.7969 139.318 42.5977C139.729 43.3919 139.934 44.3132 139.934 45.3613V45.6641H131.457C131.535 46.3477 131.76 46.9466 132.131 47.4609C132.508 47.9753 132.99 48.3757 133.576 48.6621C134.162 48.9486 134.82 49.0918 135.549 49.0918C136.747 49.0918 137.847 48.6947 138.85 47.9004L139.416 48.7793ZM131.418 44.6289H138.811C138.752 43.9323 138.56 43.3236 138.234 42.8027C137.909 42.2819 137.479 41.875 136.945 41.582C136.418 41.2891 135.816 41.1426 135.139 41.1426C134.455 41.1426 133.84 41.2891 133.293 41.582C132.753 41.875 132.316 42.2852 131.984 42.8125C131.659 43.3333 131.47 43.9388 131.418 44.6289ZM143.586 50H142.385V40.2344H143.449L143.498 42.3926C143.824 41.6374 144.305 41.0579 144.943 40.6543C145.588 40.2441 146.34 40.0391 147.199 40.0391C147.355 40.0391 147.515 40.0488 147.678 40.0684C147.847 40.0814 148.013 40.1042 148.176 40.1367L148.029 41.2207C147.71 41.1556 147.391 41.123 147.072 41.123C146.395 41.123 145.793 41.2891 145.266 41.6211C144.738 41.9531 144.325 42.4121 144.025 42.998C143.732 43.5775 143.586 44.248 143.586 45.0098V50Z" fill="black"/>
</g>
<defs>
<clipPath id="clip0_6_2">
<rect width="212" height="55" fill="white"/>
</clipPath>
</defs>
</svg>
