<svg width="389" height="203" viewBox="0 0 389 203" fill="none" xmlns="http://www.w3.org/2000/svg">
<path d="M92.3228 59.1562C88.4478 62.1354 84.1769 63.625 79.5103 63.625C76.2603 63.625 73.3436 62.8958 70.7603 61.4375C68.1769 59.9792 66.1353 58 64.6353 55.5C63.1561 52.9792 62.4165 50.1354 62.4165 46.9688C62.4165 43.9271 63.104 41.2188 64.479 38.8438C65.854 36.4479 67.7394 34.5625 70.1353 33.1875C72.5311 31.8125 75.2498 31.125 78.2915 31.125C81.4165 31.125 84.1665 31.875 86.5415 33.375C88.9373 34.875 90.8019 36.9583 92.1353 39.625C93.4686 42.2917 94.1353 45.375 94.1353 48.875V49.875H67.979C68.354 51.7083 69.104 53.3021 70.229 54.6562C71.3748 56.0104 72.7915 57.0625 74.479 57.8125C76.1665 58.5625 78.0519 58.9375 80.1353 58.9375C83.7186 58.9375 86.9894 57.7604 89.9478 55.4062L92.3228 59.1562ZM67.7915 45.5H89.2915C89.0623 43.5625 88.4582 41.875 87.479 40.4375C86.5207 38.9792 85.2707 37.8438 83.729 37.0312C82.2082 36.2188 80.4894 35.8125 78.5728 35.8125C76.6353 35.8125 74.8853 36.2188 73.3228 37.0312C71.7811 37.8438 70.5207 38.9792 69.5415 40.4375C68.5832 41.875 67.9998 43.5625 67.7915 45.5ZM130.604 63H125.479V45.5625C125.479 42.6042 124.635 40.2396 122.948 38.4688C121.26 36.6979 119.021 35.8125 116.229 35.8125C113.333 35.8125 110.979 36.7708 109.167 38.6875C107.375 40.5833 106.479 43.0833 106.479 46.1875V63H101.354V31.75H105.823L106.01 36.8125C107.156 34.9792 108.667 33.5729 110.542 32.5938C112.417 31.6146 114.625 31.125 117.167 31.125C121.312 31.125 124.583 32.375 126.979 34.875C129.396 37.375 130.604 40.8021 130.604 45.1562V63ZM168.917 63H163.792V45.5625C163.792 42.6042 162.948 40.2396 161.26 38.4688C159.573 36.6979 157.333 35.8125 154.542 35.8125C151.646 35.8125 149.292 36.7708 147.479 38.6875C145.687 40.5833 144.792 43.0833 144.792 46.1875V63H139.667V31.75H144.135L144.323 36.8125C145.469 34.9792 146.979 33.5729 148.854 32.5938C150.729 31.6146 152.937 31.125 155.479 31.125C159.625 31.125 162.896 32.375 165.292 34.875C167.708 37.375 168.917 40.8021 168.917 45.1562V63ZM180.667 21.875C179.792 21.875 179.052 21.5729 178.448 20.9688C177.864 20.3438 177.573 19.5938 177.573 18.7188C177.573 17.8646 177.864 17.1354 178.448 16.5312C179.052 15.9271 179.792 15.625 180.667 15.625C181.562 15.625 182.312 15.9271 182.917 16.5312C183.521 17.1354 183.823 17.8646 183.823 18.7188C183.823 19.5938 183.521 20.3438 182.917 20.9688C182.312 21.5729 181.562 21.875 180.667 21.875ZM183.229 63H178.104V31.75H183.229V63ZM200.573 63H195.448V36.3438H189.979V31.75H195.448V25.0312C195.448 23.0938 195.854 21.3854 196.667 19.9062C197.5 18.4271 198.646 17.2708 200.104 16.4375C201.583 15.6042 203.281 15.1875 205.198 15.1875C206.385 15.1875 207.573 15.3542 208.76 15.6875C209.969 16 211.146 16.4896 212.292 17.1562L210.323 21.1875C209.614 20.7292 208.896 20.3854 208.167 20.1562C207.437 19.9062 206.708 19.7812 205.979 19.7812C204.375 19.7812 203.073 20.3646 202.073 21.5312C201.073 22.6771 200.573 24.1771 200.573 26.0312V31.75H210.229V36.3438H200.573V63ZM244.385 59.1562C240.51 62.1354 236.239 63.625 231.573 63.625C228.323 63.625 225.406 62.8958 222.823 61.4375C220.239 59.9792 218.198 58 216.698 55.5C215.219 52.9792 214.479 50.1354 214.479 46.9688C214.479 43.9271 215.167 41.2188 216.542 38.8438C217.917 36.4479 219.802 34.5625 222.198 33.1875C224.594 31.8125 227.312 31.125 230.354 31.125C233.479 31.125 236.229 31.875 238.604 33.375C241 34.875 242.864 36.9583 244.198 39.625C245.531 42.2917 246.198 45.375 246.198 48.875V49.875H220.042C220.417 51.7083 221.167 53.3021 222.292 54.6562C223.437 56.0104 224.854 57.0625 226.542 57.8125C228.229 58.5625 230.114 58.9375 232.198 58.9375C235.781 58.9375 239.052 57.7604 242.01 55.4062L244.385 59.1562ZM219.854 45.5H241.354C241.125 43.5625 240.521 41.875 239.542 40.4375C238.583 38.9792 237.333 37.8438 235.792 37.0312C234.271 36.2188 232.552 35.8125 230.635 35.8125C228.698 35.8125 226.948 36.2188 225.385 37.0312C223.844 37.8438 222.583 38.9792 221.604 40.4375C220.646 41.875 220.062 43.5625 219.854 45.5ZM258.542 63H253.417V31.75H257.917L258.135 37.9375C259.219 35.7917 260.739 34.125 262.698 32.9375C264.677 31.7292 266.948 31.125 269.51 31.125C270.073 31.125 270.646 31.1562 271.229 31.2188C271.812 31.2812 272.396 31.375 272.979 31.5L272.354 36.125C271.208 35.8542 270.073 35.7188 268.948 35.7188C266.906 35.7188 265.094 36.2188 263.51 37.2188C261.948 38.2188 260.729 39.5938 259.854 41.3438C258.979 43.0938 258.542 45.1042 258.542 47.375V63Z" fill="black"/>
<path d="M146.885 116.5C145.364 118.146 143.562 119.417 141.479 120.312C139.396 121.188 137.156 121.625 134.76 121.625C131.656 121.625 128.864 120.917 126.385 119.5C123.927 118.083 121.979 116.146 120.542 113.688C119.125 111.229 118.417 108.458 118.417 105.375C118.417 102.271 119.125 99.5 120.542 97.0625C121.979 94.6042 123.927 92.6667 126.385 91.25C128.864 89.8333 131.656 89.125 134.76 89.125C137.135 89.125 139.364 89.5625 141.448 90.4375C143.531 91.3125 145.333 92.5729 146.854 94.2188L143.792 97.4375C142.687 96.2708 141.364 95.375 139.823 94.75C138.302 94.125 136.687 93.8125 134.979 93.8125C132.792 93.8125 130.844 94.3125 129.135 95.3125C127.448 96.2917 126.114 97.6458 125.135 99.375C124.177 101.104 123.698 103.094 123.698 105.344C123.698 107.594 124.177 109.594 125.135 111.344C126.114 113.094 127.448 114.469 129.135 115.469C130.844 116.448 132.792 116.938 134.979 116.938C136.687 116.938 138.312 116.625 139.854 116C141.396 115.354 142.708 114.458 143.792 113.312L146.885 116.5ZM154.104 121V74.125H159.229V94.4375C161.583 90.8958 165.229 89.125 170.167 89.125C174.312 89.125 177.542 90.3646 179.854 92.8438C182.187 95.3021 183.354 98.7396 183.354 103.156V121H178.229V104.344C178.229 100.99 177.396 98.3854 175.729 96.5312C174.083 94.6562 171.781 93.7188 168.823 93.7188C165.844 93.7188 163.5 94.6667 161.792 96.5625C160.083 98.4583 159.229 101.052 159.229 104.344V121H154.104ZM197.542 121H192.417V89.75H196.917L197.135 95.9375C198.219 93.7917 199.739 92.125 201.698 90.9375C203.677 89.7292 205.948 89.125 208.51 89.125C209.073 89.125 209.646 89.1562 210.229 89.2188C210.812 89.2812 211.396 89.375 211.979 89.5L211.354 94.125C210.208 93.8542 209.073 93.7188 207.948 93.7188C205.906 93.7188 204.094 94.2188 202.51 95.2188C200.948 96.2188 199.729 97.5938 198.854 99.3438C197.979 101.094 197.542 103.104 197.542 105.375V121ZM231.167 121.625C228.062 121.625 225.271 120.917 222.792 119.5C220.312 118.083 218.354 116.156 216.917 113.719C215.5 111.26 214.792 108.479 214.792 105.375C214.792 102.292 215.5 99.5312 216.917 97.0938C218.354 94.6354 220.312 92.6979 222.792 91.2812C225.271 89.8438 228.062 89.125 231.167 89.125C234.271 89.125 237.052 89.8438 239.51 91.2812C241.969 92.6979 243.906 94.6354 245.323 97.0938C246.739 99.5312 247.448 102.292 247.448 105.375C247.448 108.479 246.739 111.26 245.323 113.719C243.906 116.156 241.969 118.083 239.51 119.5C237.052 120.917 234.271 121.625 231.167 121.625ZM231.135 117C233.239 117 235.125 116.49 236.792 115.469C238.458 114.448 239.771 113.062 240.729 111.312C241.708 109.562 242.198 107.573 242.198 105.344C242.198 103.156 241.708 101.188 240.729 99.4375C239.771 97.6875 238.458 96.3021 236.792 95.2812C235.125 94.2604 233.239 93.75 231.135 93.75C229.031 93.75 227.135 94.2604 225.448 95.2812C223.781 96.3021 222.458 97.6875 221.479 99.4375C220.521 101.188 220.042 103.156 220.042 105.344C220.042 107.573 220.521 109.562 221.479 111.312C222.458 113.062 223.781 114.448 225.448 115.469C227.135 116.49 229.031 117 231.135 117ZM282.073 117.156C278.198 120.135 273.927 121.625 269.26 121.625C266.01 121.625 263.094 120.896 260.51 119.438C257.927 117.979 255.885 116 254.385 113.5C252.906 110.979 252.167 108.135 252.167 104.969C252.167 101.927 252.854 99.2188 254.229 96.8438C255.604 94.4479 257.489 92.5625 259.885 91.1875C262.281 89.8125 265 89.125 268.042 89.125C271.167 89.125 273.917 89.875 276.292 91.375C278.687 92.875 280.552 94.9583 281.885 97.625C283.219 100.292 283.885 103.375 283.885 106.875V107.875H257.729C258.104 109.708 258.854 111.302 259.979 112.656C261.125 114.01 262.542 115.062 264.229 115.812C265.917 116.562 267.802 116.938 269.885 116.938C273.469 116.938 276.739 115.76 279.698 113.406L282.073 117.156ZM257.542 103.5H279.042C278.812 101.562 278.208 99.875 277.229 98.4375C276.271 96.9792 275.021 95.8438 273.479 95.0312C271.958 94.2188 270.239 93.8125 268.323 93.8125C266.385 93.8125 264.635 94.2188 263.073 95.0312C261.531 95.8438 260.271 96.9792 259.292 98.4375C258.333 99.875 257.75 101.562 257.542 103.5ZM321.604 121H317.042L316.76 116.438C315.323 118.042 313.573 119.312 311.51 120.25C309.448 121.167 307.198 121.625 304.76 121.625C301.677 121.625 298.917 120.917 296.479 119.5C294.042 118.083 292.114 116.146 290.698 113.688C289.302 111.229 288.604 108.458 288.604 105.375C288.604 102.271 289.302 99.5 290.698 97.0625C292.114 94.6042 294.042 92.6667 296.479 91.25C298.917 89.8333 301.677 89.125 304.76 89.125C307.114 89.125 309.292 89.5521 311.292 90.4062C313.312 91.2604 315.042 92.4479 316.479 93.9688V74.125H321.604V121ZM305.198 117C307.281 117 309.177 116.521 310.885 115.562C312.594 114.583 313.948 113.26 314.948 111.594C315.969 109.906 316.479 108 316.479 105.875V104.812C316.479 102.688 315.969 100.792 314.948 99.125C313.948 97.4375 312.594 96.1146 310.885 95.1562C309.177 94.1979 307.281 93.7188 305.198 93.7188C303.031 93.7188 301.094 94.2292 299.385 95.25C297.677 96.2708 296.323 97.6562 295.323 99.4062C294.344 101.156 293.854 103.135 293.854 105.344C293.854 107.552 294.344 109.542 295.323 111.312C296.323 113.062 297.677 114.448 299.385 115.469C301.094 116.49 303.031 117 305.198 117ZM358.698 117.156C354.823 120.135 350.552 121.625 345.885 121.625C342.635 121.625 339.719 120.896 337.135 119.438C334.552 117.979 332.51 116 331.01 113.5C329.531 110.979 328.792 108.135 328.792 104.969C328.792 101.927 329.479 99.2188 330.854 96.8438C332.229 94.4479 334.114 92.5625 336.51 91.1875C338.906 89.8125 341.625 89.125 344.667 89.125C347.792 89.125 350.542 89.875 352.917 91.375C355.312 92.875 357.177 94.9583 358.51 97.625C359.844 100.292 360.51 103.375 360.51 106.875V107.875H334.354C334.729 109.708 335.479 111.302 336.604 112.656C337.75 114.01 339.167 115.062 340.854 115.812C342.542 116.562 344.427 116.938 346.51 116.938C350.094 116.938 353.364 115.76 356.323 113.406L358.698 117.156ZM334.167 103.5H355.667C355.437 101.562 354.833 99.875 353.854 98.4375C352.896 96.9792 351.646 95.8438 350.104 95.0312C348.583 94.2188 346.864 93.8125 344.948 93.8125C343.01 93.8125 341.26 94.2188 339.698 95.0312C338.156 95.8438 336.896 96.9792 335.917 98.4375C334.958 99.875 334.375 101.562 334.167 103.5ZM372.854 121H367.729V89.75H372.229L372.448 95.9375C373.531 93.7917 375.052 92.125 377.01 90.9375C378.989 89.7292 381.26 89.125 383.823 89.125C384.385 89.125 384.958 89.1562 385.542 89.2188C386.125 89.2812 386.708 89.375 387.292 89.5L386.667 94.125C385.521 93.8542 384.385 93.7188 383.26 93.7188C381.219 93.7188 379.406 94.2188 377.823 95.2188C376.26 96.2188 375.042 97.5938 374.167 99.3438C373.292 101.094 372.854 103.104 372.854 105.375V121Z" fill="black"/>
<path d="M55.436 15.1325C55.6402 47.2505 57.3822 79.2475 57.6746 111.346C57.8576 131.436 57.4318 151.597 56.979 171.697C56.9417 173.354 57.4767 177.85 55.9336 177.911C51.2174 178.099 46.4701 177.698 41.7566 177.592C30.819 177.345 19.9891 175.252 9.08833 174.217C7.96408 174.11 0.733304 174.643 1.69945 171.315C1.98878 170.318 2.53462 169.827 3.10329 169.283C7.50181 165.074 11.9156 160.917 16.3891 156.914C27.8408 146.667 39.6576 137.685 51.3779 128.287C65.3345 117.097 79.5563 107.061 93.7376 96.6593C103.134 89.7672 112.587 82.562 122.253 76.7158C127.317 73.6532 133.408 71.9366 138.09 67.6674C138.277 67.497 135.596 67.6193 135.13 67.7926C130.027 69.6892 125.305 74.959 120.785 78.9381C102.536 95.0049 85.018 114.446 68.5525 134.864C65.1042 139.141 61.573 143.346 58.1828 147.731C57.8491 148.163 54.7167 152.683 55.1413 152.797C59.3323 153.923 64.2478 147.481 67.7277 144.683C74.1179 139.545 80.473 134.147 87.0767 129.763C90.7251 127.341 108.469 114.633 110.581 125.974C112.124 134.257 109.497 143.862 106.76 150.889C102.451 161.954 96.1111 172.41 90.374 181.662C86.6618 187.649 82.406 193.755 78.1005 198.661C77.2863 199.588 74.1353 202.682 75.2048 198.595C78.5138 185.951 87.4166 176.443 93.6456 167.724C104.213 152.933 115.19 139.884 126.96 127.687" stroke="black" stroke-width="3" stroke-linecap="round"/>
<path d="M150.547 145.098V158.86C150.547 161.273 150.127 163.354 149.286 165.103C148.456 166.84 147.26 168.174 145.7 169.104C144.139 170.033 142.269 170.498 140.088 170.498C137.919 170.498 136.054 170.033 134.494 169.104C132.933 168.174 131.732 166.84 130.891 165.103C130.061 163.354 129.646 161.273 129.646 158.86V145.098H132.568V158.628C132.568 160.587 132.867 162.258 133.464 163.642C134.062 165.025 134.92 166.082 136.038 166.812C137.167 167.543 138.517 167.908 140.088 167.908C141.671 167.908 143.021 167.543 144.139 166.812C145.268 166.082 146.131 165.025 146.729 163.642C147.327 162.258 147.625 160.587 147.625 158.628V145.098H150.547ZM158.632 145.098V170H155.71V145.098H158.632ZM164.078 170.332H161.455L172.046 144.766H174.653L164.078 170.332ZM198.393 145.098V158.86C198.393 161.273 197.972 163.354 197.131 165.103C196.301 166.84 195.106 168.174 193.545 169.104C191.985 170.033 190.114 170.498 187.934 170.498C185.765 170.498 183.9 170.033 182.339 169.104C180.779 168.174 179.578 166.84 178.737 165.103C177.907 163.354 177.492 161.273 177.492 158.86V145.098H180.414V158.628C180.414 160.587 180.712 162.258 181.31 163.642C181.908 165.025 182.765 166.082 183.883 166.812C185.012 167.543 186.362 167.908 187.934 167.908C189.517 167.908 190.867 167.543 191.985 166.812C193.114 166.082 193.977 165.025 194.575 163.642C195.172 162.258 195.471 160.587 195.471 158.628V145.098H198.393ZM224.939 170H221.287L213.351 159.226L205.382 170H201.896L211.575 157.067L202.643 145.098H206.295L213.55 154.926L220.755 145.098H224.258L215.293 157.084L224.939 170ZM236.726 170V145.098H243.898C246.953 145.098 249.576 145.596 251.767 146.592C253.97 147.588 255.657 149.016 256.831 150.875C258.015 152.734 258.607 154.959 258.607 157.549C258.607 160.128 258.015 162.352 256.831 164.223C255.657 166.082 253.97 167.51 251.767 168.506C249.576 169.502 246.953 170 243.898 170H236.726ZM239.648 167.41H244.031C246.477 167.41 248.563 167.023 250.29 166.248C252.016 165.473 253.333 164.35 254.241 162.878C255.159 161.406 255.619 159.63 255.619 157.549C255.619 155.468 255.159 153.692 254.241 152.22C253.333 150.748 252.016 149.624 250.29 148.85C248.563 148.075 246.477 147.688 244.031 147.688H239.648V167.41ZM277.151 167.958C275.092 169.541 272.823 170.332 270.344 170.332C268.618 170.332 267.068 169.945 265.696 169.17C264.323 168.395 263.239 167.344 262.442 166.016C261.656 164.676 261.263 163.166 261.263 161.483C261.263 159.868 261.628 158.429 262.359 157.167C263.089 155.894 264.091 154.893 265.364 154.162C266.637 153.432 268.081 153.066 269.697 153.066C271.357 153.066 272.818 153.465 274.08 154.262C275.352 155.059 276.343 156.165 277.051 157.582C277.76 158.999 278.114 160.637 278.114 162.496V163.027H264.218C264.417 164.001 264.816 164.848 265.414 165.567C266.022 166.287 266.775 166.846 267.671 167.244C268.568 167.643 269.569 167.842 270.676 167.842C272.58 167.842 274.318 167.216 275.889 165.966L277.151 167.958ZM264.119 160.703H275.541C275.419 159.674 275.098 158.777 274.578 158.014C274.069 157.239 273.404 156.636 272.585 156.204C271.778 155.772 270.864 155.557 269.846 155.557C268.817 155.557 267.887 155.772 267.057 156.204C266.238 156.636 265.569 157.239 265.048 158.014C264.539 158.777 264.229 159.674 264.119 160.703ZM280.787 168.556L281.5 165.999C281.899 166.375 282.353 166.702 282.862 166.979C283.371 167.255 283.908 167.471 284.472 167.626C285.037 167.77 285.607 167.842 286.182 167.842C287.211 167.842 288.042 167.615 288.672 167.161C289.303 166.707 289.619 166.115 289.619 165.385C289.619 164.854 289.453 164.416 289.121 164.073C288.8 163.719 288.374 163.415 287.842 163.16C287.311 162.906 286.741 162.662 286.132 162.43C285.391 162.142 284.655 161.815 283.924 161.45C283.194 161.085 282.585 160.604 282.098 160.006C281.622 159.408 281.384 158.622 281.384 157.648C281.384 156.719 281.617 155.911 282.082 155.225C282.546 154.538 283.194 154.007 284.024 153.631C284.865 153.255 285.828 153.066 286.913 153.066C288.551 153.066 290.161 153.476 291.744 154.295L290.93 156.752C290.576 156.52 290.167 156.315 289.702 156.138C289.237 155.95 288.761 155.806 288.274 155.706C287.787 155.606 287.328 155.557 286.896 155.557C286.088 155.557 285.435 155.745 284.937 156.121C284.439 156.486 284.19 156.979 284.19 157.599C284.19 157.953 284.29 158.279 284.489 158.578C284.699 158.866 285.048 159.154 285.535 159.441C286.022 159.729 286.697 160.05 287.56 160.404C288.324 160.714 289.076 161.068 289.818 161.467C290.559 161.854 291.174 162.358 291.661 162.978C292.159 163.586 292.408 164.383 292.408 165.368C292.408 166.342 292.148 167.205 291.627 167.958C291.118 168.7 290.404 169.281 289.486 169.701C288.578 170.122 287.527 170.332 286.332 170.332C284.35 170.332 282.502 169.74 280.787 168.556ZM297.82 148.152C297.355 148.152 296.962 147.992 296.641 147.671C296.331 147.339 296.176 146.94 296.176 146.476C296.176 146.022 296.331 145.634 296.641 145.313C296.962 144.993 297.355 144.832 297.82 144.832C298.296 144.832 298.694 144.993 299.015 145.313C299.336 145.634 299.497 146.022 299.497 146.476C299.497 146.94 299.336 147.339 299.015 147.671C298.694 147.992 298.296 148.152 297.82 148.152ZM299.181 170H296.458V153.398H299.181V170ZM311.483 170C309.889 170 308.456 169.629 307.183 168.888C305.921 168.146 304.925 167.139 304.195 165.866C303.464 164.582 303.099 163.138 303.099 161.533C303.099 159.917 303.464 158.473 304.195 157.2C304.925 155.927 305.921 154.92 307.183 154.179C308.456 153.437 309.895 153.066 311.5 153.066C312.783 153.066 313.962 153.31 315.036 153.797C316.109 154.273 317.022 154.937 317.775 155.789L317.908 153.398H320.315V169.568C320.315 171.428 319.95 173.033 319.219 174.383C318.489 175.744 317.448 176.79 316.098 177.521C314.748 178.262 313.143 178.633 311.284 178.633C308.65 178.633 306.359 177.758 304.411 176.01L305.606 173.818C307.122 175.39 308.976 176.176 311.167 176.176C312.485 176.176 313.619 175.899 314.571 175.346C315.534 174.803 316.275 174.034 316.795 173.038C317.327 172.042 317.592 170.863 317.592 169.502V167.46C316.84 168.246 315.938 168.866 314.886 169.319C313.846 169.773 312.711 170 311.483 170ZM311.715 167.593C312.8 167.593 313.785 167.349 314.67 166.862C315.556 166.364 316.264 165.689 316.795 164.837C317.327 163.974 317.592 163 317.592 161.915V161.151C317.592 160.056 317.327 159.082 316.795 158.229C316.264 157.377 315.556 156.708 314.67 156.221C313.785 155.723 312.8 155.474 311.715 155.474C310.597 155.474 309.596 155.739 308.71 156.271C307.825 156.802 307.122 157.527 306.602 158.445C306.093 159.353 305.838 160.382 305.838 161.533C305.838 162.684 306.093 163.719 306.602 164.638C307.122 165.556 307.825 166.281 308.71 166.812C309.596 167.333 310.597 167.593 311.715 167.593ZM340.851 170H338.128V160.736C338.128 159.165 337.68 157.909 336.784 156.968C335.887 156.027 334.697 155.557 333.214 155.557C331.676 155.557 330.425 156.066 329.462 157.084C328.511 158.091 328.035 159.419 328.035 161.068V170H325.312V153.398H327.686L327.786 156.088C328.394 155.114 329.197 154.367 330.193 153.847C331.189 153.326 332.362 153.066 333.712 153.066C335.915 153.066 337.653 153.73 338.925 155.059C340.209 156.387 340.851 158.207 340.851 160.521V170ZM360.225 167.958C358.167 169.541 355.898 170.332 353.418 170.332C351.692 170.332 350.142 169.945 348.77 169.17C347.398 168.395 346.313 167.344 345.516 166.016C344.73 164.676 344.337 163.166 344.337 161.483C344.337 159.868 344.703 158.429 345.433 157.167C346.164 155.894 347.165 154.893 348.438 154.162C349.711 153.432 351.155 153.066 352.771 153.066C354.431 153.066 355.892 153.465 357.154 154.262C358.427 155.059 359.417 156.165 360.125 157.582C360.834 158.999 361.188 160.637 361.188 162.496V163.027H347.292C347.492 164.001 347.89 164.848 348.488 165.567C349.097 166.287 349.849 166.846 350.746 167.244C351.642 167.643 352.644 167.842 353.75 167.842C355.654 167.842 357.392 167.216 358.963 165.966L360.225 167.958ZM347.193 160.703H358.615C358.493 159.674 358.172 158.777 357.652 158.014C357.143 157.239 356.479 156.636 355.66 156.204C354.852 155.772 353.939 155.557 352.92 155.557C351.891 155.557 350.961 155.772 350.131 156.204C349.312 156.636 348.643 157.239 348.123 158.014C347.613 158.777 347.304 159.674 347.193 160.703ZM367.746 170H365.023V153.398H367.414L367.53 156.686C368.105 155.546 368.913 154.66 369.954 154.029C371.005 153.387 372.211 153.066 373.573 153.066C373.872 153.066 374.176 153.083 374.486 153.116C374.796 153.149 375.106 153.199 375.416 153.266L375.083 155.723C374.475 155.579 373.872 155.507 373.274 155.507C372.189 155.507 371.226 155.772 370.385 156.304C369.555 156.835 368.908 157.565 368.443 158.495C367.978 159.425 367.746 160.493 367.746 161.699V170Z" fill="black"/>
<path d="M124.073 132H385.073" stroke="black" stroke-width="2" stroke-linecap="round"/>
</svg>
